<?xml version="1.0" encoding="UTF-8" standalone="no"?>
<!DOCTYPE svg PUBLIC "-//W3C//DTD SVG 1.1//EN" "http://www.w3.org/Graphics/SVG/1.1/DTD/svg11.dtd">
<svg version="1.1" xmlns="http://www.w3.org/2000/svg" xmlns:xlink="http://www.w3.org/1999/xlink" preserveAspectRatio="xMidYMid meet" viewBox="29.932500000000005 -1 582.135 643.9999999999999" width="78.13" height="86.49"><defs><path d="M419.05 303.74C454.04 246.43 473.48 214.59 477.37 208.22C479.95 204 479.28 198.56 475.76 195.08C472.25 191.6 466.79 191.01 462.59 193.63C456.42 197.5 425.58 216.86 370.07 251.71C345.7 106.03 332.16 25.09 329.45 8.91C328.6 3.77 324.14 0 318.93 0C318.92 0 318.91 0 318.9 0C313.67 0.02 309.23 3.82 308.4 8.98C305.82 25.16 292.88 106.03 269.59 251.6C212.95 216.79 181.48 197.45 175.19 193.58C170.98 190.99 165.5 191.65 162.02 195.17C158.53 198.69 157.94 204.16 160.59 208.36C164.6 214.72 184.69 246.52 220.84 303.77C111.99 326.44 51.52 339.04 39.42 341.56C34.49 342.59 30.93 346.94 30.93 352C30.93 357.06 34.49 361.41 39.42 362.44C51.52 364.96 111.99 377.56 220.83 400.23C184.68 457.48 164.59 489.28 160.58 495.64C157.93 499.84 158.53 505.3 162 508.83C164.07 510.91 166.83 512 169.6 512C171.52 512 173.45 511.49 175.18 510.42C181.6 506.47 213.74 486.72 271.58 451.18C293.72 559.36 306.02 619.46 308.48 631.48C309.49 636.42 313.83 639.98 318.88 640C318.89 640 318.91 640 318.92 640C323.96 640 328.3 636.48 329.35 631.56C331.93 619.52 344.81 559.34 368 451C424.76 486.62 456.29 506.41 462.59 510.37C464.34 511.47 466.3 512 468.27 512C471 512 473.72 510.96 475.77 508.92C479.29 505.44 479.96 500 477.38 495.78C473.49 489.41 454.05 457.57 419.06 400.26C527.98 377.57 588.49 364.96 600.59 362.44C605.53 361.41 609.07 357.06 609.07 352C609.07 346.95 605.53 342.59 600.58 341.56C576.37 336.52 515.86 323.91 419.05 303.74ZM397.3 298.44C397.16 298.67 397.16 298.92 397.05 299.16C395.73 298.88 389.16 297.52 377.32 295.05L373.89 274.51L435.54 235.8C412.6 273.38 399.85 294.27 397.3 298.44ZM356.58 300.34L320 336.92L283.39 300.31L319.17 76.72L356.58 300.34ZM265.94 274.4L262.64 295.06C250.83 297.52 244.27 298.88 242.96 299.16C242.8 298.88 242.8 298.57 242.62 298.3C239.99 294.14 226.83 273.31 203.15 235.81L265.94 274.4ZM203.15 468.2C226.83 430.7 239.99 409.87 242.62 405.71C242.8 405.44 242.81 405.13 242.96 404.85C244.29 405.13 250.96 406.52 262.96 409.02C265.43 421.06 266.8 427.75 267.07 429.09C266.86 429.18 266.62 429.18 266.42 429.31C257.98 434.5 236.89 447.46 203.15 468.2ZM93.9 352L268.53 315.62L304.92 352L268.53 388.38L93.9 352ZM283.61 403.49L320.01 367.08C341.09 388.16 352.79 399.87 355.14 402.21C355.52 402.59 356.02 402.76 356.45 403.07C353.96 414.68 341.54 472.75 319.17 577.27L283.61 403.49ZM373.68 429.37C373.37 429.17 373.02 429.16 372.7 429C372.99 427.67 374.41 421.01 376.98 409.02C389.02 406.51 395.71 405.12 397.05 404.84C397.16 405.08 397.16 405.33 397.3 405.56C399.85 409.73 412.6 430.62 435.54 468.2C398.42 444.9 377.8 431.95 373.68 429.37ZM370.21 387.13C367.87 384.78 356.16 373.08 335.08 352L371.47 315.62L546.1 352L371.09 388.46C370.77 387.83 370.47 387.39 370.21 387.13Z" id="c1A6mPsEQG"></path></defs><g><g><use xlink:href="#c1A6mPsEQG" opacity="1" fill="#1b2845" fill-opacity="1"></use><g><use xlink:href="#c1A6mPsEQG" opacity="1" fill-opacity="0" stroke="#000000" stroke-width="1" stroke-opacity="0"></use></g></g></g></svg>